<?xml version="1.0" encoding="UTF-8"?>
<svg width="186px" height="55px" viewBox="0 0 186 55" version="1.1" xmlns="http://www.w3.org/2000/svg" xmlns:xlink="http://www.w3.org/1999/xlink">
    <!-- Generator: Sketch 51.2 (57519) - http://www.bohemiancoding.com/sketch -->
    <title>SVG</title>
    <desc>Created with Sketch.</desc>
    <defs></defs>
    <g id="Page-1" stroke="none" stroke-width="1" fill="none" fill-rule="evenodd">
        <path d="M179.482,55 L6.519,55 C2.925,55 0,52.088 0,48.507 L0,6.5 C0,2.916 2.925,0 6.519,0 L179.481,0 C183.071,0 186,2.916 186,6.5 L186,48.507 C186.003,52.088 183.073,55 179.482,55 Z" id="Button" fill="#FFFFFF" fill-rule="nonzero"></path>
        <g id="Sonic" transform="translate(17.000000, 10.000000)" fill="#848484">
            <text font-family="SFProDisplay-Bold, SF Pro Display" font-size="23.5" font-weight="bold">
                <tspan x="43.1717529" y="33">Sonic Dev</tspan>
            </text>
            <path d="M12.8486642,33.4885695 C12.3238353,33.4224266 11.5002712,33.261063 11.1169533,33.1492701 C9.27705049,32.6126702 7.57115328,31.5653191 5.90548836,29.9496443 C5.33186181,29.3932332 5.33186181,29.3932332 4.87720579,29.3507807 C3.80333985,29.2505099 2.78799189,28.8462226 2.24592686,28.3030679 C2.05986989,28.1166374 1.88240757,27.8778902 1.79608397,27.6978788 C1.66897981,27.4328256 1.65354465,27.3495377 1.65375344,26.9298699 C1.65394856,26.5158908 1.669672,26.4289145 1.78411078,26.2082655 C1.91113495,25.9633515 2.19821896,25.6574183 2.40806866,25.5433413 C2.5127118,25.4864556 2.5127118,25.4864556 2.41120525,25.3286689 C1.95049551,24.6125001 1.51147704,23.5486809 1.28946731,22.610501 C1.04447949,21.575219 0.977166664,20.9719673 0.975283246,19.7948192 C0.973019827,18.379787 1.10777279,17.2473207 1.43589689,15.9238288 C1.57869669,15.3478444 1.57869669,15.3478444 1.45515985,14.9823985 C1.19006857,14.1982073 0.686495329,12.439348 0.456800228,11.4953679 C-0.000829516824,9.61464336 -0.104783392,8.64993991 0.100943376,8.19297064 C0.30312526,7.74387568 0.695838275,7.45399641 1.35218891,7.26936954 C1.82739428,7.13569784 3.47336941,7.15288588 4.43401043,7.3015511 C5.16495951,7.41467089 6.29570137,7.64051011 6.79703558,7.77351092 C7.06249564,7.84393585 7.06249564,7.84393585 7.55313471,7.41163948 C10.1257386,5.14494576 13.1960606,3.22456669 16.1413516,2.04000954 C19.6828048,0.615683987 22.8760499,0.20816309 26.6535685,0.698444629 C27.9961284,0.872694458 29.8488981,1.33116753 31.0438225,1.78482495 C33.348798,2.6599191 35.3839535,3.9161845 36.8326004,5.35813662 C37.395904,5.91883774 37.4956262,6.20335878 37.2842745,6.64683191 C37.1327376,6.96480148 36.9396055,7.06156764 36.3532774,7.11329923 C36.0815744,7.13727151 35.736164,7.19223469 35.5856954,7.23543941 C34.3733465,7.58355506 33.0169925,8.36632264 31.4340672,9.63140032 C30.8480806,10.0997213 30.3608943,10.5300144 30.3608943,10.5792487 C30.3608943,10.6001395 30.4432115,10.6327641 30.5438215,10.6517468 C30.8919344,10.7174294 31.8880243,11.0801416 32.3795424,11.3202024 C34.7990693,12.501906 37.0827863,15.0447737 38.5190039,18.1563495 C39.035083,19.2744382 39.094888,19.553546 38.8911413,19.8930411 C38.6989945,20.2132002 38.6145846,20.2520764 37.8721635,20.3623392 C36.5168632,20.5636244 34.9131476,20.9794636 33.8454527,21.4064537 C33.2138075,21.6590588 32.1169955,22.2066962 32.1169955,22.2694693 C32.1169955,22.2908552 32.221264,22.3474356 32.3487033,22.3952033 C33.2344124,22.7271917 34.2467219,23.5041765 34.954255,24.3950639 C36.1893795,25.9502651 37.0950107,28.304753 37.3409575,30.6000736 C37.4007479,31.1580974 37.3994601,31.1796299 37.2928257,31.4033757 C37.1772499,31.6458782 36.9664397,31.8137779 36.7128489,31.8652949 C36.6108829,31.8860099 36.2736236,31.8158218 35.6452711,31.6431179 C32.019127,30.6464568 28.3196461,30.1016972 26.2095032,30.2536728 C24.7549529,30.3584322 23.4904854,30.7077266 20.5316046,31.8221269 C16.9956651,33.1538648 15.7628249,33.4683188 13.9706154,33.4956045 C13.4474435,33.50357 12.9425644,33.5004058 12.8486618,33.4885695 L12.8486642,33.4885695 Z M15.3114811,26.7631024 C15.684515,26.5896315 15.9570483,26.3588151 16.2395347,25.9771053 C16.4413995,25.7043362 16.7023308,25.249721 16.7023308,25.1707856 C16.7023308,25.1552946 16.6598712,25.1657023 16.6079764,25.193913 C16.5560817,25.2221237 16.396935,25.2447156 16.2543172,25.244117 C15.2238028,25.2397914 14.6468699,23.9258555 14.644827,21.5785819 C14.6427489,19.1901821 15.2177136,17.8677768 16.2600996,17.8634977 C16.7307591,17.8615653 17.1055316,18.1380946 17.3785678,18.6887699 C17.5195525,18.9731156 17.7136753,19.6716226 17.7551183,20.0437002 C17.781716,20.282495 17.8002136,20.3322382 17.8373497,20.2648347 C17.9092972,20.1342465 17.847779,17.4537303 17.7581788,16.8151249 C17.5558848,15.3733264 17.179844,14.3745055 16.5954208,13.7266647 C16.1486487,13.231411 15.6678677,12.9844431 15.003099,12.9087179 C14.0463936,12.7997379 13.3043262,13.1524487 12.4786664,14.108602 C11.8165909,14.8753167 11.1148441,16.1466247 10.2101929,18.2182445 C9.01369872,20.9581753 8.44662583,21.7562659 7.57212695,21.9310232 C7.28767709,21.9878667 7.28767709,21.9878667 7.28703611,22.5140717 C7.2862605,23.1504058 7.16287634,23.8024072 6.95534176,24.2668401 C6.77805554,24.6635821 6.36214443,25.1161782 6.12654589,25.1687392 C5.7790481,25.246265 5.94709577,25.2896258 6.50120667,25.2654122 C7.19580275,25.2350595 8.41782285,25.3106831 8.9949977,25.4197384 C9.6107863,25.5360893 10.132722,25.7071789 11.1901242,26.1392959 C12.4877952,26.6696016 12.8759921,26.7777115 13.9218372,26.9000573 C14.0157398,26.9110423 14.3023687,26.914695 14.5587902,26.9081744 C14.9455193,26.8983399 15.0738552,26.8736046 15.3114811,26.7631024 Z M5.4340147,25.2676295 C5.4340147,25.2616921 5.31384811,25.1971164 5.16697756,25.1241273 C4.49691885,24.791134 4.12832687,23.9318663 4.08179701,22.5943356 C4.03869058,21.3552102 4.27550181,20.4756591 4.79693684,19.9382055 C4.94610978,19.7844501 5.10108718,19.6480413 5.14133117,19.6350743 C5.2017308,19.615614 5.17278294,19.4842592 4.97547765,18.882492 C4.64763916,17.8826063 4.33433315,17.2495014 3.97341679,16.8576038 C3.7022611,16.5631714 3.26570947,16.2768428 3.08795885,16.2768428 C2.9243551,16.2768428 2.66120187,17.9930247 2.62070227,19.3241041 C2.55529287,21.4738839 2.96403274,23.1518075 3.90012786,24.5762941 C4.04339596,24.7943096 4.22360316,25.0395769 4.30058869,25.1213327 C4.437528,25.266757 4.45133193,25.2700713 4.93728879,25.2742022 C5.21048789,25.276526 5.4340147,25.273568 5.4340147,25.2676295 Z" fill-rule="nonzero"></path>
        </g>
        <text id="Download-from" font-family="SFProDisplay-Regular, SF Pro Display" font-size="13" font-weight="normal" fill="#A7A9AB">
            <tspan x="72.1037598" y="21">Download from</tspan>
        </text>
    </g>
</svg>