<?xml version="1.0" encoding="UTF-8"?>
<svg width="186px" height="55px" viewBox="0 0 186 55" version="1.1" xmlns="http://www.w3.org/2000/svg" xmlns:xlink="http://www.w3.org/1999/xlink">
    <!-- Generator: Sketch 51.2 (57519) - http://www.bohemiancoding.com/sketch -->
    <title>SVG</title>
    <desc>Created with Sketch.</desc>
    <defs></defs>
    <g id="Page-1" stroke="none" stroke-width="1" fill="none" fill-rule="evenodd">
        <path d="M179.482,55 L6.519,55 C2.925,55 0,52.088 0,48.507 L0,6.5 C0,2.916 2.925,0 6.519,0 L179.481,0 C183.071,0 186,2.916 186,6.5 L186,48.507 C186.003,52.088 183.073,55 179.482,55 Z" id="Button" fill="#848484" fill-rule="nonzero"></path>
        <g id="Ignition" transform="translate(17.000000, 8.000000)" fill="#FFFFFF">
            <text font-family="SFProDisplay-Bold, SF Pro Display" font-size="23.5" font-weight="bold">
                <tspan x="56.3388672" y="35">Ignition</tspan>
            </text>
            <path d="M22.0415435,11.3394534 C12.8119876,5.59036822 16.98577,0 16.98577,0 C8.01937759,4.84806766 6.03506505,12.2453345 8.23131962,21.5973596 C4.9956317,19.1379887 4.53099067,16.2251012 4.6327309,12.4126766 C0.516653381,16.544744 -0.220362937,20.948273 0.0496090743,25.6560499 C0.478200659,33.1218063 7.23792458,39.0641804 15.2441677,38.9994766 C23.0212701,38.9366764 29.5999669,32.8683468 29.9756602,25.4973812 C30.2929249,19.2899134 27.5010473,14.7397025 22.0415435,11.3394534 Z M15.3423016,34.6218471 C13.9399436,34.6218471 12.6045271,34.3642768 11.3736289,33.9115122 C9.7606034,33.3181042 8.33941757,32.3757225 7.20748158,31.181009 C7.25955336,31.1757464 7.31040007,31.1648383 7.36289607,31.1588238 C12.0385462,30.6169112 15.79693,27.3005216 16.700976,23.0131678 C16.8375645,23.6592455 16.9120677,24.3267359 16.9120677,25.0103955 C16.9120677,26.8688145 16.3761276,28.6065441 15.4532556,30.1084886 C18.7157554,28.3414764 20.9175677,25.0397057 20.9175677,21.2495146 C20.9175677,18.6784552 19.900215,16.3364129 18.2322893,14.5396663 C22.8446511,15.7294671 26.237704,19.6843905 26.237704,24.3928969 C26.237704,30.0419535 21.3594036,34.6218471 15.3423016,34.6218471 Z" fill-rule="nonzero"></path>
        </g>
        <text id="Download-from" font-family="SFProDisplay-Regular, SF Pro Display" font-size="13" font-weight="normal" fill="#FFFFFF">
            <tspan x="72.1037598" y="21">Download from</tspan>
        </text>
    </g>
</svg>