<?xml version="1.0" encoding="UTF-8"?>
<svg width="186px" height="55px" viewBox="0 0 186 55" version="1.1" xmlns="http://www.w3.org/2000/svg" xmlns:xlink="http://www.w3.org/1999/xlink">
    <!-- Generator: Sketch 51.2 (57519) - http://www.bohemiancoding.com/sketch -->
    <title>Untitled</title>
    <desc>Created with Sketch.</desc>
    <defs></defs>
    <g id="Page-1" stroke="none" stroke-width="1" fill="none" fill-rule="evenodd">
        <g id="app-store" fill-rule="nonzero">
            <path d="M179.482,55 L6.519,55 C2.925,55 0,52.088 0,48.507 L0,6.5 C0,2.916 2.925,0 6.519,0 L179.481,0 C183.071,0 186,2.916 186,6.5 L186,48.507 C186.003,52.088 183.073,55 179.482,55 Z" id="Shape" fill="#848484"></path>
            <path d="M41.51,27.211 C41.47,22.779 45.146,20.623 45.314,20.523 C43.232,17.494 40.005,17.08 38.872,17.047 C36.162,16.762 33.533,18.665 32.153,18.665 C30.745,18.665 28.619,17.074 26.328,17.121 C23.38,17.166 20.621,18.87 19.108,21.516 C15.986,26.91 18.314,34.837 21.306,39.197 C22.802,41.334 24.551,43.717 26.839,43.633 C29.078,43.542 29.914,42.21 32.616,42.21 C35.293,42.21 36.078,43.633 38.412,43.579 C40.815,43.542 42.328,41.434 43.772,39.279 C45.501,36.833 46.196,34.421 46.223,34.297 C46.167,34.278 41.557,32.521 41.51,27.211 Z" id="Shape" fill="#FFFFFF"></path>
            <path d="M37.101,14.178 C38.305,12.675 39.129,10.63 38.9,8.556 C37.157,8.633 34.977,9.759 33.722,11.229 C32.612,12.524 31.62,14.647 31.876,16.644 C33.834,16.789 35.844,15.658 37.101,14.178 Z" id="Shape" fill="#FFFFFF"></path>
            <g id="Group" transform="translate(58.000000, 24.000000)" fill="#FFFFFF">
                <path d="M15.938,19.326 L12.809,19.326 L11.095,13.951 L5.137,13.951 L3.504,19.326 L0.458,19.326 L6.362,1.028 L10.008,1.028 L15.938,19.326 Z M10.579,11.696 L9.029,6.918 C8.865,6.43 8.556,5.28 8.105,3.471 L8.05,3.471 C7.868,4.249 7.577,5.399 7.179,6.918 L5.655,11.696 L10.579,11.696 Z" id="Shape"></path>
                <path d="M31.091,12.566 C31.091,14.81 30.481,16.584 29.259,17.886 C28.165,19.045 26.805,19.624 25.184,19.624 C23.433,19.624 22.174,19.001 21.409,17.753 L21.409,24.676 L18.472,24.676 L18.472,10.468 C18.472,9.059 18.435,7.614 18.363,6.131 L20.946,6.131 L21.11,8.222 L21.165,8.222 C22.145,6.646 23.631,5.858 25.626,5.858 C27.186,5.858 28.488,6.473 29.529,7.703 C30.569,8.937 31.091,10.557 31.091,12.566 Z M28.099,12.673 C28.099,11.389 27.81,10.33 27.228,9.495 C26.593,8.627 25.74,8.193 24.671,8.193 C23.946,8.193 23.288,8.435 22.699,8.912 C22.109,9.393 21.724,10.022 21.543,10.8 C21.452,11.163 21.407,11.459 21.407,11.692 L21.407,13.893 C21.407,14.851 21.702,15.661 22.292,16.324 C22.882,16.984 23.648,17.315 24.59,17.315 C25.696,17.315 26.557,16.887 27.173,16.039 C27.79,15.19 28.099,14.068 28.099,12.673 Z" id="Shape"></path>
                <path d="M46.298,12.566 C46.298,14.81 45.688,16.584 44.466,17.886 C43.371,19.045 42.012,19.624 40.389,19.624 C38.638,19.624 37.379,19.001 36.614,17.753 L36.614,24.676 L33.677,24.676 L33.677,10.468 C33.677,9.059 33.64,7.614 33.568,6.131 L36.151,6.131 L36.315,8.222 L36.37,8.222 C37.348,6.646 38.835,5.858 40.831,5.858 C42.389,5.858 43.691,6.473 44.736,7.703 C45.774,8.937 46.298,10.557 46.298,12.566 Z M43.304,12.673 C43.304,11.389 43.013,10.33 42.432,9.495 C41.797,8.627 40.947,8.193 39.878,8.193 C39.153,8.193 38.495,8.435 37.904,8.912 C37.314,9.393 36.93,10.022 36.749,10.8 C36.659,11.163 36.611,11.459 36.611,11.692 L36.611,13.893 C36.611,14.851 36.907,15.661 37.494,16.324 C38.084,16.983 38.85,17.315 39.795,17.315 C40.903,17.315 41.764,16.887 42.378,16.039 C42.995,15.19 43.304,14.068 43.304,12.673 Z" id="Shape"></path>
                <path d="M63.3,14.193 C63.3,15.751 62.754,17.017 61.67,17.995 C60.477,19.062 58.811,19.597 56.676,19.597 C54.703,19.597 53.121,19.218 51.928,18.457 L52.607,16.014 C53.895,16.776 55.31,17.155 56.851,17.155 C57.959,17.155 58.82,16.905 59.434,16.408 C60.05,15.91 60.361,15.245 60.361,14.414 C60.361,13.67 60.103,13.047 59.598,12.54 C59.09,12.034 58.249,11.562 57.068,11.129 C53.858,9.934 52.251,8.186 52.251,5.888 C52.251,4.387 52.819,3.157 53.951,2.196 C55.084,1.236 56.585,0.756 58.454,0.756 C60.122,0.756 61.513,1.046 62.616,1.625 L61.879,4.015 C60.84,3.454 59.668,3.174 58.356,3.174 C57.32,3.174 56.507,3.428 55.926,3.934 C55.437,4.386 55.189,4.938 55.189,5.592 C55.189,6.314 55.471,6.913 56.034,7.384 C56.522,7.817 57.412,8.289 58.699,8.795 C60.278,9.43 61.438,10.17 62.181,11.02 C62.928,11.869 63.3,12.929 63.3,14.193 Z" id="Shape"></path>
                <path d="M73.036,8.331 L69.798,8.331 L69.798,14.737 C69.798,16.366 70.368,17.179 71.512,17.179 C72.037,17.179 72.472,17.135 72.817,17.043 L72.898,19.269 C72.319,19.485 71.557,19.593 70.614,19.593 C69.454,19.593 68.547,19.24 67.893,18.533 C67.241,17.826 66.913,16.642 66.913,14.976 L66.913,8.325 L64.984,8.325 L64.984,6.125 L66.913,6.125 L66.913,3.709 L69.798,2.84 L69.798,6.125 L73.036,6.125 C73.036,6.126 73.036,8.331 73.036,8.331 Z" id="Shape"></path>
                <path d="M87.616,12.62 C87.616,14.648 87.035,16.313 85.874,17.615 C84.66,18.956 83.045,19.624 81.032,19.624 C79.089,19.624 77.545,18.982 76.393,17.699 C75.241,16.413 74.665,14.794 74.665,12.84 C74.665,10.795 75.26,9.121 76.446,7.818 C77.635,6.515 79.236,5.863 81.249,5.863 C83.189,5.863 84.747,6.506 85.927,7.791 C87.055,9.036 87.616,10.645 87.616,12.62 Z M84.571,12.687 C84.571,11.478 84.309,10.442 83.784,9.574 C83.168,8.526 82.286,8.002 81.144,8.002 C79.967,8.002 79.065,8.526 78.45,9.574 C77.924,10.442 77.662,11.496 77.662,12.742 C77.662,13.952 77.924,14.992 78.45,15.856 C79.085,16.904 79.971,17.428 81.119,17.428 C82.242,17.428 83.122,16.893 83.759,15.83 C84.3,14.942 84.571,13.898 84.571,12.687 Z" id="Shape"></path>
                <path d="M97.168,8.709 C96.877,8.655 96.566,8.628 96.242,8.628 C95.209,8.628 94.41,9.016 93.847,9.797 C93.359,10.485 93.114,11.353 93.114,12.403 L93.114,19.326 L90.177,19.326 L90.177,10.287 C90.177,8.768 90.148,7.382 90.092,6.133 L92.651,6.133 L92.758,8.658 L92.839,8.658 C93.15,7.79 93.638,7.09 94.308,6.567 C94.962,6.095 95.669,5.86 96.431,5.86 C96.702,5.86 96.948,5.879 97.165,5.914 L97.168,8.709 Z" id="Shape"></path>
                <path d="M110.305,12.104 C110.305,12.629 110.271,13.072 110.198,13.434 L101.386,13.434 C101.419,14.737 101.846,15.736 102.665,16.423 C103.408,17.036 104.368,17.344 105.547,17.344 C106.852,17.344 108.042,17.138 109.113,16.721 L109.573,18.755 C108.322,19.299 106.845,19.57 105.141,19.57 C103.091,19.57 101.482,18.968 100.311,17.766 C99.143,16.563 98.557,14.946 98.557,12.92 C98.557,10.932 99.101,9.275 100.191,7.954 C101.332,6.543 102.874,5.838 104.813,5.838 C106.718,5.838 108.161,6.543 109.141,7.954 C109.915,9.072 110.305,10.458 110.305,12.104 Z M107.504,11.344 C107.525,10.474 107.332,9.724 106.934,9.09 C106.426,8.273 105.643,7.866 104.595,7.866 C103.635,7.866 102.852,8.263 102.257,9.061 C101.768,9.695 101.477,10.457 101.388,11.341 L107.504,11.344 Z" id="Shape"></path>
            </g>
            <g id="Group" transform="translate(60.000000, 9.000000)" fill="#FFFFFF">
                <path d="M2.291,9.558 C1.474,9.558 0.767,9.518 0.179,9.451 L0.179,0.604 C0.941,0.484 1.769,0.417 2.666,0.417 C6.035,0.417 7.586,2.071 7.586,4.767 C7.586,7.877 5.753,9.558 2.291,9.558 Z M2.784,1.551 C2.329,1.551 1.942,1.578 1.621,1.645 L1.621,8.37 C1.795,8.397 2.128,8.41 2.596,8.41 C4.803,8.41 6.06,7.156 6.06,4.807 C6.06,2.713 4.924,1.551 2.784,1.551 Z" id="Shape"></path>
                <path d="M12.42,9.625 C10.521,9.625 9.291,8.21 9.291,6.289 C9.291,4.287 10.548,2.86 12.527,2.86 C14.398,2.86 15.656,4.207 15.656,6.183 C15.657,8.21 14.36,9.625 12.42,9.625 Z M12.475,3.913 C11.432,3.913 10.764,4.887 10.764,6.248 C10.764,7.583 11.446,8.557 12.461,8.557 C13.476,8.557 14.158,7.516 14.158,6.221 C14.159,4.901 13.491,3.913 12.475,3.913 Z" id="Shape"></path>
                <path d="M26.483,2.993 L24.451,9.477 L23.127,9.477 L22.285,6.661 C22.071,5.954 21.898,5.26 21.763,4.567 L21.735,4.567 C21.629,5.274 21.428,5.982 21.214,6.661 L20.318,9.477 L18.98,9.477 L17.068,2.993 L18.552,2.993 L19.288,6.076 C19.462,6.81 19.608,7.503 19.729,8.158 L19.757,8.158 C19.863,7.612 20.037,6.93 20.292,6.09 L21.215,2.995 L22.392,2.995 L23.275,6.024 C23.489,6.758 23.662,7.479 23.797,8.159 L23.836,8.159 C23.93,7.492 24.077,6.784 24.277,6.024 L25.066,2.995 L26.483,2.993 Z" id="Shape"></path>
                <path d="M33.964,9.478 L32.52,9.478 L32.52,5.754 C32.52,4.607 32.079,4.033 31.21,4.033 C30.354,4.033 29.766,4.767 29.766,5.621 L29.766,9.478 L28.322,9.478 L28.322,4.847 C28.322,4.274 28.308,3.659 28.268,2.992 L29.538,2.992 L29.606,3.993 L29.646,3.993 C30.035,3.3 30.823,2.86 31.706,2.86 C33.07,2.86 33.966,3.901 33.966,5.595 L33.964,9.478 Z" id="Shape"></path>
                <polygon id="Shape" points="37.946 9.478 36.501 9.478 36.501 0.018 37.946 0.018"></polygon>
                <path d="M43.211,9.625 C41.314,9.625 40.082,8.21 40.082,6.289 C40.082,4.287 41.339,2.86 43.317,2.86 C45.189,2.86 46.446,4.207 46.446,6.183 C46.447,8.21 45.149,9.625 43.211,9.625 Z M43.264,3.913 C42.221,3.913 41.553,4.887 41.553,6.248 C41.553,7.583 42.236,8.557 43.249,8.557 C44.266,8.557 44.946,7.516 44.946,6.221 C44.948,4.901 44.281,3.913 43.264,3.913 Z" id="Shape"></path>
                <path d="M52.139,9.478 L52.034,8.731 L51.995,8.731 C51.554,9.332 50.911,9.625 50.095,9.625 C48.931,9.625 48.104,8.811 48.104,7.716 C48.104,6.116 49.494,5.288 51.901,5.288 L51.901,5.168 C51.901,4.314 51.448,3.886 50.552,3.886 C49.911,3.886 49.349,4.047 48.855,4.367 L48.562,3.42 C49.163,3.046 49.912,2.859 50.793,2.859 C52.49,2.859 53.347,3.753 53.347,5.542 L53.347,7.93 C53.347,8.585 53.376,9.092 53.441,9.478 L52.139,9.478 Z M51.94,6.248 C50.336,6.248 49.532,6.636 49.532,7.556 C49.532,8.237 49.947,8.569 50.523,8.569 C51.257,8.569 51.941,8.009 51.941,7.249 L51.94,6.248 Z" id="Shape"></path>
                <path d="M60.359,9.478 L60.291,8.437 L60.251,8.437 C59.836,9.223 59.139,9.625 58.165,9.625 C56.598,9.625 55.438,8.25 55.438,6.315 C55.438,4.287 56.641,2.858 58.283,2.858 C59.152,2.858 59.768,3.151 60.115,3.739 L60.144,3.739 L60.144,0.017 L61.589,0.017 L61.589,7.729 C61.589,8.356 61.604,8.943 61.643,9.477 C61.644,9.478 60.359,9.478 60.359,9.478 Z M60.145,5.662 C60.145,4.754 59.543,3.98 58.624,3.98 C57.553,3.98 56.899,4.927 56.899,6.261 C56.899,7.569 57.578,8.464 58.595,8.464 C59.503,8.464 60.145,7.676 60.145,6.743 C60.145,6.743 60.145,5.662 60.145,5.662 Z" id="Shape"></path>
                <path d="M70.754,9.625 C68.857,9.625 67.626,8.21 67.626,6.289 C67.626,4.287 68.883,2.86 70.861,2.86 C72.733,2.86 73.99,4.207 73.99,6.183 C73.992,8.21 72.695,9.625 70.754,9.625 Z M70.808,3.913 C69.766,3.913 69.098,4.887 69.098,6.248 C69.098,7.583 69.78,8.557 70.794,8.557 C71.811,8.557 72.491,7.516 72.491,6.221 C72.494,4.901 71.826,3.913 70.808,3.913 Z" id="Shape"></path>
                <path d="M81.755,9.478 L80.31,9.478 L80.31,5.754 C80.31,4.607 79.869,4.033 79,4.033 C78.144,4.033 77.557,4.767 77.557,5.621 L77.557,9.478 L76.112,9.478 L76.112,4.847 C76.112,4.274 76.098,3.659 76.058,2.992 L77.328,2.992 L77.396,3.993 L77.436,3.993 C77.823,3.3 78.613,2.859 79.494,2.859 C80.858,2.859 81.755,3.9 81.755,5.594 L81.755,9.478 Z" id="Shape"></path>
                <path d="M91.47,4.074 L89.881,4.074 L89.881,7.223 C89.881,8.025 90.159,8.425 90.721,8.425 C90.976,8.425 91.189,8.398 91.362,8.358 L91.402,9.453 C91.122,9.56 90.748,9.614 90.282,9.614 C89.144,9.614 88.463,8.987 88.463,7.345 L88.463,4.075 L87.515,4.075 L87.515,2.994 L88.463,2.994 L88.463,1.806 L89.881,1.378 L89.881,2.992 L91.47,2.992 C91.47,2.992 91.47,4.074 91.47,4.074 Z" id="Shape"></path>
                <path d="M99.114,9.478 L97.671,9.478 L97.671,5.782 C97.671,4.621 97.231,4.034 96.361,4.034 C95.613,4.034 94.916,4.541 94.916,5.569 L94.916,9.478 L93.473,9.478 L93.473,0.018 L94.916,0.018 L94.916,3.913 L94.945,3.913 C95.4,3.206 96.058,2.858 96.899,2.858 C98.274,2.858 99.114,3.925 99.114,5.62 C99.114,5.621 99.114,9.478 99.114,9.478 Z" id="Shape"></path>
                <path d="M106.945,6.582 L102.612,6.582 C102.64,7.81 103.454,8.503 104.659,8.503 C105.3,8.503 105.889,8.396 106.41,8.196 L106.635,9.197 C106.021,9.464 105.297,9.597 104.455,9.597 C102.423,9.597 101.22,8.316 101.22,6.329 C101.22,4.341 102.452,2.846 104.292,2.846 C105.952,2.846 106.994,4.074 106.994,5.929 C106.999,6.182 106.987,6.409 106.945,6.582 Z M105.621,5.555 C105.621,4.554 105.115,3.847 104.192,3.847 C103.363,3.847 102.707,4.567 102.613,5.555 L105.621,5.555 Z" id="Shape"></path>
            </g>
        </g>
    </g>
</svg>