<?xml version="1.0" encoding="UTF-8"?>
<svg width="187px" height="56px" viewBox="0 0 187 56" version="1.1" xmlns="http://www.w3.org/2000/svg" xmlns:xlink="http://www.w3.org/1999/xlink">
    <!-- Generator: Sketch 51.2 (57519) - http://www.bohemiancoding.com/sketch -->
    <title>Untitled</title>
    <desc>Created with Sketch.</desc>
    <defs></defs>
    <g id="Page-1" stroke="none" stroke-width="1" fill="none" fill-rule="evenodd">
        <g id="app-store-white" fill-rule="nonzero">
            <path d="M179.982,55.5 L7.019,55.5 C3.425,55.5 0.5,52.588 0.5,49.007 L0.5,7 C0.5,3.416 3.425,0.5 7.019,0.5 L179.981,0.5 C183.571,0.5 186.5,3.416 186.5,7 L186.5,49.007 C186.503,52.588 183.573,55.5 179.982,55.5 Z" id="Shape" fill="#FFFFFF"></path>
            <g id="Shape_1_" transform="translate(18.000000, 9.000000)">
                <path d="M24.01,18.711 C23.97,14.279 27.646,12.123 27.814,12.023 C25.732,8.994 22.505,8.58 21.372,8.547 C18.662,8.262 16.033,10.165 14.653,10.165 C13.245,10.165 11.119,8.574 8.828,8.621 C5.88,8.666 3.121,10.37 1.608,13.016 C-1.514,18.41 0.814,26.337 3.806,30.697 C5.302,32.834 7.051,35.217 9.339,35.133 C11.578,35.042 12.414,33.71 15.116,33.71 C17.793,33.71 18.578,35.133 20.912,35.079 C23.315,35.042 24.828,32.934 26.272,30.779 C28.001,28.333 28.696,25.921 28.723,25.797 C28.667,25.778 24.057,24.021 24.01,18.711 Z" id="Shape" fill="#848484"></path>
                <path d="M19.601,5.678 C20.805,4.175 21.629,2.13 21.4,0.056 C19.657,0.133 17.477,1.259 16.222,2.729 C15.112,4.024 14.12,6.147 14.376,8.144 C16.334,8.289 18.344,7.158 19.601,5.678 Z" id="Shape" fill="#848484"></path>
                <g id="Group" transform="translate(40.000000, 16.000000)" fill="#848484">
                    <path d="M16.438,18.826 L13.309,18.826 L11.595,13.451 L5.637,13.451 L4.004,18.826 L0.958,18.826 L6.862,0.528 L10.508,0.528 L16.438,18.826 Z M11.079,11.196 L9.529,6.418 C9.365,5.93 9.056,4.78 8.605,2.971 L8.55,2.971 C8.368,3.749 8.077,4.899 7.679,6.418 L6.155,11.196 L11.079,11.196 Z" id="Shape"></path>
                    <path d="M31.591,12.066 C31.591,14.31 30.981,16.084 29.759,17.386 C28.665,18.545 27.305,19.124 25.684,19.124 C23.933,19.124 22.674,18.501 21.909,17.253 L21.909,24.176 L18.972,24.176 L18.972,9.968 C18.972,8.559 18.935,7.114 18.863,5.631 L21.446,5.631 L21.61,7.722 L21.665,7.722 C22.645,6.146 24.131,5.358 26.126,5.358 C27.686,5.358 28.988,5.973 30.029,7.203 C31.069,8.437 31.591,10.057 31.591,12.066 Z M28.599,12.173 C28.599,10.889 28.31,9.83 27.728,8.995 C27.093,8.127 26.24,7.693 25.171,7.693 C24.446,7.693 23.788,7.935 23.199,8.412 C22.609,8.893 22.224,9.522 22.043,10.3 C21.952,10.663 21.907,10.959 21.907,11.192 L21.907,13.393 C21.907,14.351 22.202,15.161 22.792,15.824 C23.382,16.484 24.148,16.815 25.09,16.815 C26.196,16.815 27.057,16.387 27.673,15.539 C28.29,14.69 28.599,13.568 28.599,12.173 Z" id="Shape"></path>
                    <path d="M46.798,12.066 C46.798,14.31 46.188,16.084 44.966,17.386 C43.871,18.545 42.512,19.124 40.889,19.124 C39.138,19.124 37.879,18.501 37.114,17.253 L37.114,24.176 L34.177,24.176 L34.177,9.968 C34.177,8.559 34.14,7.114 34.068,5.631 L36.651,5.631 L36.815,7.722 L36.87,7.722 C37.848,6.146 39.335,5.358 41.331,5.358 C42.889,5.358 44.191,5.973 45.236,7.203 C46.274,8.437 46.798,10.057 46.798,12.066 Z M43.804,12.173 C43.804,10.889 43.513,9.83 42.932,8.995 C42.297,8.127 41.447,7.693 40.378,7.693 C39.653,7.693 38.995,7.935 38.404,8.412 C37.814,8.893 37.43,9.522 37.249,10.3 C37.159,10.663 37.111,10.959 37.111,11.192 L37.111,13.393 C37.111,14.351 37.407,15.161 37.994,15.824 C38.584,16.483 39.35,16.815 40.295,16.815 C41.403,16.815 42.264,16.387 42.878,15.539 C43.495,14.69 43.804,13.568 43.804,12.173 Z" id="Shape"></path>
                    <path d="M63.8,13.693 C63.8,15.251 63.254,16.517 62.17,17.495 C60.977,18.562 59.311,19.097 57.176,19.097 C55.203,19.097 53.621,18.718 52.428,17.957 L53.107,15.514 C54.395,16.276 55.81,16.655 57.351,16.655 C58.459,16.655 59.32,16.405 59.934,15.908 C60.55,15.41 60.861,14.745 60.861,13.914 C60.861,13.17 60.603,12.547 60.098,12.04 C59.59,11.534 58.749,11.062 57.568,10.629 C54.358,9.434 52.751,7.686 52.751,5.388 C52.751,3.887 53.319,2.657 54.451,1.696 C55.584,0.736 57.085,0.256 58.954,0.256 C60.622,0.256 62.013,0.546 63.116,1.125 L62.379,3.515 C61.34,2.954 60.168,2.674 58.856,2.674 C57.82,2.674 57.007,2.928 56.426,3.434 C55.937,3.886 55.689,4.438 55.689,5.092 C55.689,5.814 55.971,6.413 56.534,6.884 C57.022,7.317 57.912,7.789 59.199,8.295 C60.778,8.93 61.938,9.67 62.681,10.52 C63.428,11.369 63.8,12.429 63.8,13.693 Z" id="Shape"></path>
                    <path d="M73.536,7.831 L70.298,7.831 L70.298,14.237 C70.298,15.866 70.868,16.679 72.012,16.679 C72.537,16.679 72.972,16.635 73.317,16.543 L73.398,18.769 C72.819,18.985 72.057,19.093 71.114,19.093 C69.954,19.093 69.047,18.74 68.393,18.033 C67.741,17.326 67.413,16.142 67.413,14.476 L67.413,7.825 L65.484,7.825 L65.484,5.625 L67.413,5.625 L67.413,3.209 L70.298,2.34 L70.298,5.625 L73.536,5.625 L73.536,7.831 Z" id="Shape"></path>
                    <path d="M88.116,12.12 C88.116,14.148 87.535,15.813 86.374,17.115 C85.16,18.456 83.545,19.124 81.532,19.124 C79.589,19.124 78.045,18.482 76.893,17.199 C75.741,15.913 75.165,14.294 75.165,12.34 C75.165,10.295 75.76,8.621 76.946,7.318 C78.135,6.015 79.736,5.363 81.749,5.363 C83.689,5.363 85.247,6.006 86.427,7.291 C87.555,8.536 88.116,10.145 88.116,12.12 Z M85.071,12.187 C85.071,10.978 84.809,9.942 84.284,9.074 C83.668,8.026 82.786,7.502 81.644,7.502 C80.467,7.502 79.565,8.026 78.95,9.074 C78.424,9.942 78.162,10.996 78.162,12.242 C78.162,13.452 78.424,14.492 78.95,15.356 C79.585,16.404 80.471,16.928 81.619,16.928 C82.742,16.928 83.622,16.393 84.259,15.33 C84.8,14.442 85.071,13.398 85.071,12.187 Z" id="Shape"></path>
                    <path d="M97.668,8.209 C97.377,8.155 97.066,8.128 96.742,8.128 C95.709,8.128 94.91,8.516 94.347,9.297 C93.859,9.985 93.614,10.853 93.614,11.903 L93.614,18.826 L90.677,18.826 L90.677,9.787 C90.677,8.268 90.648,6.882 90.592,5.633 L93.151,5.633 L93.258,8.158 L93.339,8.158 C93.65,7.29 94.138,6.59 94.808,6.067 C95.462,5.595 96.169,5.36 96.931,5.36 C97.202,5.36 97.448,5.379 97.665,5.414 L97.668,8.209 Z" id="Shape"></path>
                    <path d="M110.805,11.604 C110.805,12.129 110.771,12.572 110.698,12.934 L101.886,12.934 C101.919,14.237 102.346,15.236 103.165,15.923 C103.908,16.536 104.868,16.844 106.047,16.844 C107.352,16.844 108.542,16.638 109.613,16.221 L110.073,18.255 C108.822,18.799 107.345,19.07 105.641,19.07 C103.591,19.07 101.982,18.468 100.811,17.266 C99.643,16.063 99.057,14.446 99.057,12.42 C99.057,10.432 99.601,8.775 100.691,7.454 C101.832,6.043 103.374,5.338 105.313,5.338 C107.218,5.338 108.661,6.043 109.641,7.454 C110.415,8.572 110.805,9.958 110.805,11.604 Z M108.004,10.844 C108.025,9.974 107.832,9.224 107.434,8.59 C106.926,7.773 106.143,7.366 105.095,7.366 C104.135,7.366 103.352,7.763 102.757,8.561 C102.268,9.195 101.977,9.957 101.888,10.841 L108.004,10.844 Z" id="Shape"></path>
                </g>
                <g id="Group" transform="translate(42.000000, 0.000000)" fill="#A7A9AB">
                    <path d="M2.791,10.058 C1.974,10.058 1.267,10.018 0.679,9.951 L0.679,1.104 C1.441,0.984 2.269,0.917 3.166,0.917 C6.535,0.917 8.086,2.571 8.086,5.267 C8.086,8.377 6.253,10.058 2.791,10.058 Z M3.284,2.051 C2.829,2.051 2.442,2.078 2.121,2.145 L2.121,8.87 C2.295,8.897 2.628,8.91 3.096,8.91 C5.303,8.91 6.56,7.656 6.56,5.307 C6.56,3.213 5.424,2.051 3.284,2.051 Z" id="Shape"></path>
                    <path d="M12.92,10.125 C11.021,10.125 9.791,8.71 9.791,6.789 C9.791,4.787 11.048,3.36 13.027,3.36 C14.898,3.36 16.156,4.707 16.156,6.683 C16.157,8.71 14.86,10.125 12.92,10.125 Z M12.975,4.413 C11.932,4.413 11.264,5.387 11.264,6.748 C11.264,8.083 11.946,9.057 12.961,9.057 C13.976,9.057 14.658,8.016 14.658,6.721 C14.659,5.401 13.991,4.413 12.975,4.413 Z" id="Shape"></path>
                    <path d="M26.983,3.493 L24.951,9.977 L23.627,9.977 L22.785,7.161 C22.571,6.454 22.398,5.76 22.263,5.067 L22.235,5.067 C22.129,5.774 21.928,6.482 21.714,7.161 L20.818,9.977 L19.48,9.977 L17.568,3.493 L19.052,3.493 L19.788,6.576 C19.962,7.31 20.108,8.003 20.229,8.658 L20.257,8.658 C20.363,8.112 20.537,7.43 20.792,6.59 L21.715,3.495 L22.892,3.495 L23.775,6.524 C23.989,7.258 24.162,7.979 24.297,8.659 L24.336,8.659 C24.43,7.992 24.577,7.284 24.777,6.524 L25.566,3.495 L26.983,3.493 Z" id="Shape"></path>
                    <path d="M34.464,9.978 L33.02,9.978 L33.02,6.254 C33.02,5.107 32.579,4.533 31.71,4.533 C30.854,4.533 30.266,5.267 30.266,6.121 L30.266,9.978 L28.822,9.978 L28.822,5.347 C28.822,4.774 28.808,4.159 28.768,3.492 L30.038,3.492 L30.106,4.493 L30.146,4.493 C30.535,3.8 31.323,3.36 32.206,3.36 C33.57,3.36 34.466,4.401 34.466,6.095 L34.464,9.978 Z" id="Shape"></path>
                    <polygon id="Shape" points="38.446 9.978 37.001 9.978 37.001 0.518 38.446 0.518"></polygon>
                    <path d="M43.711,10.125 C41.814,10.125 40.582,8.71 40.582,6.789 C40.582,4.787 41.839,3.36 43.817,3.36 C45.689,3.36 46.946,4.707 46.946,6.683 C46.947,8.71 45.649,10.125 43.711,10.125 Z M43.764,4.413 C42.721,4.413 42.053,5.387 42.053,6.748 C42.053,8.083 42.736,9.057 43.749,9.057 C44.766,9.057 45.446,8.016 45.446,6.721 C45.448,5.401 44.781,4.413 43.764,4.413 Z" id="Shape"></path>
                    <path d="M52.639,9.978 L52.534,9.231 L52.495,9.231 C52.054,9.832 51.411,10.125 50.595,10.125 C49.431,10.125 48.604,9.311 48.604,8.216 C48.604,6.616 49.994,5.788 52.401,5.788 L52.401,5.668 C52.401,4.814 51.948,4.386 51.052,4.386 C50.411,4.386 49.849,4.547 49.355,4.867 L49.062,3.92 C49.663,3.546 50.412,3.359 51.293,3.359 C52.99,3.359 53.847,4.253 53.847,6.042 L53.847,8.43 C53.847,9.085 53.876,9.592 53.941,9.978 L52.639,9.978 Z M52.44,6.748 C50.836,6.748 50.032,7.136 50.032,8.056 C50.032,8.737 50.447,9.069 51.023,9.069 C51.757,9.069 52.441,8.509 52.441,7.749 L52.44,6.748 Z" id="Shape"></path>
                    <path d="M60.859,9.978 L60.791,8.937 L60.751,8.937 C60.336,9.723 59.639,10.125 58.665,10.125 C57.098,10.125 55.938,8.75 55.938,6.815 C55.938,4.787 57.141,3.358 58.783,3.358 C59.652,3.358 60.268,3.651 60.615,4.239 L60.644,4.239 L60.644,0.517 L62.089,0.517 L62.089,8.229 C62.089,8.856 62.104,9.443 62.143,9.977 C62.144,9.978 60.859,9.978 60.859,9.978 Z M60.645,6.162 C60.645,5.254 60.043,4.48 59.124,4.48 C58.053,4.48 57.399,5.427 57.399,6.761 C57.399,8.069 58.078,8.964 59.095,8.964 C60.003,8.964 60.645,8.176 60.645,7.243 L60.645,6.162 Z" id="Shape"></path>
                    <path d="M71.254,10.125 C69.357,10.125 68.126,8.71 68.126,6.789 C68.126,4.787 69.383,3.36 71.361,3.36 C73.233,3.36 74.49,4.707 74.49,6.683 C74.492,8.71 73.195,10.125 71.254,10.125 Z M71.308,4.413 C70.266,4.413 69.598,5.387 69.598,6.748 C69.598,8.083 70.28,9.057 71.294,9.057 C72.311,9.057 72.991,8.016 72.991,6.721 C72.994,5.401 72.326,4.413 71.308,4.413 Z" id="Shape"></path>
                    <path d="M82.255,9.978 L80.81,9.978 L80.81,6.254 C80.81,5.107 80.369,4.533 79.5,4.533 C78.644,4.533 78.057,5.267 78.057,6.121 L78.057,9.978 L76.612,9.978 L76.612,5.347 C76.612,4.774 76.598,4.159 76.558,3.492 L77.828,3.492 L77.896,4.493 L77.936,4.493 C78.323,3.8 79.113,3.359 79.994,3.359 C81.358,3.359 82.255,4.4 82.255,6.094 L82.255,9.978 Z" id="Shape"></path>
                    <path d="M91.97,4.574 L90.381,4.574 L90.381,7.723 C90.381,8.525 90.659,8.925 91.221,8.925 C91.476,8.925 91.689,8.898 91.862,8.858 L91.902,9.953 C91.622,10.06 91.248,10.114 90.782,10.114 C89.644,10.114 88.963,9.487 88.963,7.845 L88.963,4.575 L88.015,4.575 L88.015,3.494 L88.963,3.494 L88.963,2.306 L90.381,1.878 L90.381,3.492 L91.97,3.492 L91.97,4.574 Z" id="Shape"></path>
                    <path d="M99.614,9.978 L98.171,9.978 L98.171,6.282 C98.171,5.121 97.731,4.534 96.861,4.534 C96.113,4.534 95.416,5.041 95.416,6.069 L95.416,9.978 L93.973,9.978 L93.973,0.518 L95.416,0.518 L95.416,4.413 L95.445,4.413 C95.9,3.706 96.558,3.358 97.399,3.358 C98.774,3.358 99.614,4.425 99.614,6.12 L99.614,9.978 Z" id="Shape"></path>
                    <path d="M107.445,7.082 L103.112,7.082 C103.14,8.31 103.954,9.003 105.159,9.003 C105.8,9.003 106.389,8.896 106.91,8.696 L107.135,9.697 C106.521,9.964 105.797,10.097 104.955,10.097 C102.923,10.097 101.72,8.816 101.72,6.829 C101.72,4.841 102.952,3.346 104.792,3.346 C106.452,3.346 107.494,4.574 107.494,6.429 C107.499,6.682 107.487,6.909 107.445,7.082 Z M106.121,6.055 C106.121,5.054 105.615,4.347 104.692,4.347 C103.863,4.347 103.207,5.067 103.113,6.055 L106.121,6.055 Z" id="Shape"></path>
                </g>
            </g>
        </g>
    </g>
</svg>